<?xml version="1.0" encoding="utf-8"?>
<!-- Generator: Adobe Illustrator 23.0.1, SVG Export Plug-In . SVG Version: 6.00 Build 0)  -->
<svg version="1.1" id="Layer_1" xmlns="http://www.w3.org/2000/svg" xmlns:xlink="http://www.w3.org/1999/xlink" x="0px" y="0px"
	 viewBox="0 0 24 24" style="enable-background:new 0 0 24 24;" xml:space="preserve">
<style type="text/css">
	.st0{fill-rule:evenodd;clip-rule:evenodd;fill:#FFFFFF;}
</style>
<title>Combined Shape</title>
<desc>Created with Sketch.</desc>
<g id="Symbols">
	<g>
		<path id="Combined-Shape" class="st0" d="M22,4H2C0.9,4,0,3.1,0,2c0-1.1,0.9-2,2-2h20c1.1,0,2,0.9,2,2C24,3.1,23.1,4,22,4z M22,24
			H2c-1.1,0-2-0.9-2-2c0-1.1,0.9-2,2-2h20c1.1,0,2,0.9,2,2C24,23.1,23.1,24,22,24z M22,14H2c-1.1,0-2-0.9-2-2c0-1.1,0.9-2,2-2h20
			c1.1,0,2,0.9,2,2C24,13.1,23.1,14,22,14z"/>
	</g>
</g>
</svg>
