<?xml version="1.0" encoding="UTF-8"?>
<svg width="21px" height="5px" viewBox="0 0 21 5" version="1.1" xmlns="http://www.w3.org/2000/svg" xmlns:xlink="http://www.w3.org/1999/xlink">
    <!-- Generator: Sketch 52.6 (67491) - http://www.bohemiancoding.com/sketch -->
    <title>Combined Shape</title>
    <desc>Created with Sketch.</desc>
    <g id="Symbols" stroke="none" stroke-width="1" fill="none" fill-rule="evenodd">
        <g id="0:-Icons-/-Dark-/-More" transform="translate(-2.000000, -16.000000)" fill="#253445">
            <path d="M4.5,21 C3.11928813,21 2,19.8807119 2,18.5 C2,17.1192881 3.11928813,16 4.5,16 C5.88071187,16 7,17.1192881 7,18.5 C7,19.8807119 5.88071187,21 4.5,21 Z M12.5,21 C11.1192881,21 10,19.8807119 10,18.5 C10,17.1192881 11.1192881,16 12.5,16 C13.8807119,16 15,17.1192881 15,18.5 C15,19.8807119 13.8807119,21 12.5,21 Z M20.5,21 C19.1192881,21 18,19.8807119 18,18.5 C18,17.1192881 19.1192881,16 20.5,16 C21.8807119,16 23,17.1192881 23,18.5 C23,19.8807119 21.8807119,21 20.5,21 Z" id="Combined-Shape"></path>
        </g>
    </g>
</svg>