<svg id="Layer_1" xmlns="http://www.w3.org/2000/svg" xmlns:xlink="http://www.w3.org/1999/xlink" viewBox="0 0 24 24"><style>.st0{clip-path:url(#SVGID_2_)}</style><defs><path id="SVGID_1_" d="M23.1 0h-6c-.5 0-.9.4-.9.9s.4.9.9.9h3.8L8 14c-.3.3-.3.9 0 1.2.3.3.9.3 1.2 0l13-12.4v4.1c0 .5.4.9.9.9s.9-.4.9-.9v-6c0-.5-.4-.9-.9-.9zm-.8 20.6c0 .9-.8 1.7-1.7 1.7H3.4c-.9 0-1.7-.8-1.7-1.7V3.4c0-.9.8-1.7 1.7-1.7h9.4V0H3.4C1.6 0 0 1.9 0 3.8v16.9C0 22.5 1.5 24 3.4 24h16.9c1.9 0 3.8-1.6 3.8-3.4v-9.4h-1.7v9.4z"/></defs><clipPath id="SVGID_2_"><use xlink:href="#SVGID_1_" overflow="visible"/></clipPath><path class="st0" d="M-5-5h34v34H-5z"/></svg>