<?xml version="1.0" encoding="utf-8"?>
<!-- Generator: Adobe Illustrator 23.0.1, SVG Export Plug-In . SVG Version: 6.00 Build 0)  -->
<svg version="1.1" id="Layer_1" xmlns="http://www.w3.org/2000/svg" xmlns:xlink="http://www.w3.org/1999/xlink" x="0px" y="0px"
	 viewBox="0 0 24 24" style="enable-background:new 0 0 24 24;" xml:space="preserve">
<style type="text/css">
	.st0{clip-path:url(#SVGID_2_);}
</style>
<g>
	<defs>
		<path id="SVGID_1_" d="M23.1,0h-6c-0.5,0-0.9,0.4-0.9,0.9c0,0.5,0.4,0.9,0.9,0.9l3.8,0L8,14c-0.3,0.3-0.3,0.9,0,1.2
			c0.3,0.3,0.9,0.3,1.2,0l13-12.4l0,4.1c0,0.5,0.4,0.9,0.9,0.9c0.5,0,0.9-0.4,0.9-0.9v-6C24,0.4,23.6,0,23.1,0z M22.3,20.6
			c0,0.9-0.8,1.7-1.7,1.7l-17.2,0c-0.9,0-1.7-0.8-1.7-1.7l0-17.2c0-0.9,0.8-1.7,1.7-1.7h9.4V0H3.4C1.6,0,0,1.9,0,3.8v16.9
			C0,22.5,1.5,24,3.4,24h16.9c1.9,0,3.8-1.6,3.8-3.4v-9.4h-1.7V20.6z"/>
	</defs>
	<clipPath id="SVGID_2_">
		<use xlink:href="#SVGID_1_"  style="overflow:visible;"/>
	</clipPath>
	<rect x="-5" y="-5" class="st0" width="34" height="34"/>
</g>
</svg>
