<?xml version="1.0" encoding="utf-8"?>
<!-- Generator: Adobe Illustrator 23.0.1, SVG Export Plug-In . SVG Version: 6.00 Build 0)  -->
<svg version="1.1" id="Layer_1" xmlns="http://www.w3.org/2000/svg" xmlns:xlink="http://www.w3.org/1999/xlink" x="0px" y="0px"
	 viewBox="0 0 126.1 74.3" style="enable-background:new 0 0 126.1 74.3;" xml:space="preserve">
<g>
	<g>
		<path d="M115.3,74.3c-0.8,0-1.6-0.2-2.3-0.7c-1.9-1.3-2.4-3.9-1.2-5.8c3.9-5.8,5.9-12.5,5.9-19.6c0-7-2-13.8-5.9-19.6
			c-1.3-1.9-0.8-4.6,1.1-5.8c1.9-1.3,4.5-0.8,5.8,1.1c4.8,7.2,7.3,15.5,7.3,24.2s-2.5,17.1-7.3,24.2C118,73.7,116.7,74.3,115.3,74.3
			L115.3,74.3z"/>
	</g>
	<g>
		<path d="M103.3,67.5c-0.8,0-1.6-0.2-2.3-0.7c-1.9-1.3-2.4-3.9-1.1-5.8c2.6-3.8,3.9-8.2,3.9-12.7c0-4.6-1.4-9-3.9-12.7
			c-1.3-1.9-0.8-4.5,1.1-5.8c1.9-1.3,4.5-0.8,5.8,1.1c3.5,5.2,5.4,11.2,5.4,17.4c0,6.3-1.8,12.3-5.4,17.4
			C106,66.9,104.7,67.5,103.3,67.5L103.3,67.5z"/>
	</g>
	<path d="M83.7,30C82,13.2,67.8,0,50.6,0C36.3,0,23.7,9.2,19.1,22.5C8.3,24.1,0,33.4,0,44.6c0,12.3,10,22.3,22.4,22.3h57.3
		c10.3,0,18.7-8.4,18.7-18.7C98.4,39.3,92.1,31.8,83.7,30z M79.7,58.6H22.4c-7.7,0-14-6.3-14-14s6.3-14,14-14c3.7,0,7.3,1.4,9.9,4.1
		c1.6,1.6,4.3,1.6,5.9,0c1.6-1.6,1.6-4.3,0-5.9c-2.9-2.9-6.4-4.9-10.3-5.9c4-8.7,12.8-14.6,22.7-14.6c13.7,0,24.9,11.2,24.9,24.9
		c0,2.7-0.4,5.3-1.3,7.8c-0.7,2.2,0.5,4.6,2.7,5.3c0.5,0.1,0.9,0.2,1.3,0.2c1.8,0,3.4-1.1,4-2.9c0.5-1.7,0.9-3.3,1.2-5
		c3.9,1.5,6.6,5.2,6.6,9.6C90.1,53.9,85.4,58.6,79.7,58.6z"/>
</g>
</svg>
