<svg id="Layer_1" xmlns="http://www.w3.org/2000/svg" viewBox="0 0 162.1 70.4"><style>.st0{fill:#010101}</style><path class="st0" d="M32.8 69.9c-.3-.3-.4-.8-.4-1.2 0-.4-.3-4.3-.6-8.6l-.6-7.8.6-13.8c.6-14.1.7-14.6 1.8-14.6.2 0 .6.1.8.4.4.3.6 2.1 1.2 14l.8 13.7-.8 8.9c-.4 4.9-.9 9.1-1.1 9.3-.4.3-1.1.2-1.7-.3zm6.5-.2c-.3-.4-.6-3.1-1-9.5-.5-7.6-.6-9.7-.3-15.4.1-3.6.4-10.8.6-15.9.2-5.1.4-9.6.4-10.1.3-1.6 2.2-1.9 2.5-.3.1.3.4 8 .8 16.9l.7 16.4-.7 8.5c-.2 2.9-.5 5.9-.7 8.8 0 .5-.8 1.2-1.4 1.2-.3-.1-.7-.3-.9-.6zm6.5.1c-.4-.4-.6-1.1-.7-4.4-.1-2.2-.3-5.4-.4-7.1-.4-4.5-.3-10.3.1-24.2.3-6.6.4-13.2.4-14.9.1-3.4.3-4.4 1.2-4.6 1.1-.3 1.9.5 1.9 1.8 0 .6.3 8.9.6 18.2l.6 17-.5 8.6c-.3 4.7-.6 8.7-.6 8.9 0 .5-.8 1.2-1.5 1.2-.3-.1-.7-.3-1.1-.5zm6.6 0c-.3-.4-.5-1.1-.6-2.3-1-14.5-1-15.5-.5-30.5.6-20.7.7-22.7 1.2-23.2s1.9-.5 2.3 0c.3.3.4 3.9.8 12.1.8 23 .8 26.6.3 34.1-.6 8.5-.6 9.3-1.2 9.8-.6.6-1.6.6-2.3 0zm6.6-.1c-.3-.3-.6-1-.6-1.5 0-.4-.2-4.2-.4-8.4-.4-7-.4-9 0-26 .5-19.7.5-19.4 2-19.7 1.3-.3 2.1.8 2.1 2.8 0 .9.1 5.5.3 10.2.1 4.7.3 11.8.4 15.9.1 4 .2 7.5.3 7.7.1.2-.1 4.2-.4 8.9-.2 3-.4 6.1-.6 9.1 0 .8-1 1.8-1.9 1.8-.5 0-.9-.3-1.2-.6v-.2zm6.8.1c-.6-.6-.6-1.3-1.2-11.4-.3-5.9-.3-12.1.3-32.1.3-10.7.3-10.9 2-10.9.6 0 1.1.2 1.5.6.6.6.6 1 .8 10.2.1 2.9.3 10 .4 15.7.3 9.3.3 11.3-.3 18.9-.5 8.2-.6 8.5-1.2 9-.8.6-1.8.6-2.5 0h.2zm6.7 0c-.4-.4-.6-1.1-.7-2.3-.4-4.9-.8-16.9-.6-24.1.1-4.4.3-11.2.3-15.2.3-16 .4-18.5 1-19.1.7-.7 2.1-.7 2.7 0 .7.7.8 2.7 1.4 33.6.2 9.3-.4 25.6-1.1 26.7-.6 1.1-2.2 1.3-3 .4zm6.9-.1c-.5-.4-.8-.9-.9-1.5-.1-.5-.3-4.6-.6-9.2-.3-6.5-.4-10.4-.2-18.4.1-5.6.3-14.8.4-20.5.2-13 .3-14.3 1.1-15.1.8-.8 2-.7 2.9.1.6.6.7.9.8 4.1 0 1.9.1 3.8.1 4.2s.1 5.8.3 11.9c.1 6.2.3 11.3.3 11.4.3.5.1 18.8-.3 24.5-.2 2.3-.3 4.6-.4 7 0 .7-1.3 1.9-2.1 1.9-.4.2-1.1-.1-1.4-.4zm6.1-.1l-.7-.7V3.5l.8-.5c.9-.7 4.2-1.8 7.6-2.5 3.6-.7 9.5-.6 13.2.1 14.9 3.1 25.5 14.5 28 30.1l.2 1 2.4-.7c2.1-.6 2.8-.7 5.6-.6 3.9.2 4 .2 6.6 1.1 11.1 4.2 16.2 17.1 10.8 27.7-2.5 4.9-6 8-11.4 10l-2 .8-30.1.1-30.1.1-.9-.6zm-59.3-.2c-.1-.3-.5-4.5-.9-9.2-.6-8.3-.6-8.7-.2-14 .3-3 .5-6.6.6-8.1.2-2.7.6-3.9 1.3-3.9.9 0 1.1 1 1.9 9l.8 8.2-.7 8.7c-.4 4.8-.8 9-.9 9.4-.1.4-.4.6-.9.6-.6-.1-.9-.2-1-.7zm-6.3.1c-.1-.1-.5-4.2-.9-9l-.8-8.7.8-9c.4-5 .9-9.2 1-9.4.4-.4.9-.4 1.3 0 .2.2.7 4.4 1.1 9.4l.8 9-.8 8.7c-.4 4.8-.9 8.9-.9 9-.1.3-1.4.4-1.6 0zm-6.3-.7c-.1-.2-.6-4-.9-8.6l-.8-8.3.7-7.8c.4-4.3.8-8.4.8-9 .2-1.3.8-1.8 1.3-1.2.2.2.7 3.9 1.2 8.9l.9 8.6-.8 8.2c-.4 4.6-.9 8.5-1.1 8.9-.3.7-.9.9-1.3.3zm-6.4-2.7c-.1-.3-.5-3.7-.9-7.7l-.8-7.1.8-7.3c.8-7 .9-7.3 1.5-7.4.7-.1.6-.4 1.8 8.3l.8 6.6-.8 6.9c-.4 3.8-.9 7.1-1.1 7.5-.3.8-1 .8-1.2.1l-.1.1zm-5.9-5.3C1 59.2.7 57.6.5 56.1L0 51.8l.6-4.6c.3-2.5.8-4.7.9-4.9.6-.8 1.1.4 1.7 4.9l.7 4.6-.7 4.6c-.4 2.5-.9 4.7-1.1 4.8-.5.2-.6.2-.8-.4z"/></svg>