<?xml version="1.0" encoding="utf-8"?>
<!-- Generator: Adobe Illustrator 23.0.1, SVG Export Plug-In . SVG Version: 6.00 Build 0)  -->
<svg version="1.1" id="Layer_1" xmlns="http://www.w3.org/2000/svg" xmlns:xlink="http://www.w3.org/1999/xlink" x="0px" y="0px"
	 viewBox="0 0 21 5" style="enable-background:new 0 0 21 5;" xml:space="preserve">
<style type="text/css">
	.st0{fill-rule:evenodd;clip-rule:evenodd;fill:#FFFFFF;}
</style>
<title>Combined Shape</title>
<desc>Created with Sketch.</desc>
<g id="Symbols">
	<g transform="translate(-2.000000, -16.000000)">
		<path id="Combined-Shape" class="st0" d="M4.5,21C3.1,21,2,19.9,2,18.5S3.1,16,4.5,16S7,17.1,7,18.5S5.9,21,4.5,21z M12.5,21
			c-1.4,0-2.5-1.1-2.5-2.5s1.1-2.5,2.5-2.5s2.5,1.1,2.5,2.5S13.9,21,12.5,21z M20.5,21c-1.4,0-2.5-1.1-2.5-2.5s1.1-2.5,2.5-2.5
			s2.5,1.1,2.5,2.5S21.9,21,20.5,21z"/>
	</g>
</g>
</svg>
