<svg xmlns="http://www.w3.org/2000/svg" viewBox="0 0 126.1 74.3"><path d="M115.3 74.3c-.8 0-1.6-.2-2.3-.7-1.9-1.3-2.4-3.9-1.2-5.8 3.9-5.8 5.9-12.5 5.9-19.6 0-7-2-13.8-5.9-19.6-1.3-1.9-.8-4.6 1.1-5.8 1.9-1.3 4.5-.8 5.8 1.1 4.8 7.2 7.3 15.5 7.3 24.2s-2.5 17.1-7.3 24.2c-.7 1.4-2 2-3.4 2z"/><path d="M103.3 67.5c-.8 0-1.6-.2-2.3-.7-1.9-1.3-2.4-3.9-1.1-5.8 2.6-3.8 3.9-8.2 3.9-12.7 0-4.6-1.4-9-3.9-12.7-1.3-1.9-.8-4.5 1.1-5.8 1.9-1.3 4.5-.8 5.8 1.1 3.5 5.2 5.4 11.2 5.4 17.4 0 6.3-1.8 12.3-5.4 17.4-.8 1.2-2.1 1.8-3.5 1.8zM83.7 30C82 13.2 67.8 0 50.6 0 36.3 0 23.7 9.2 19.1 22.5 8.3 24.1 0 33.4 0 44.6c0 12.3 10 22.3 22.4 22.3h57.3c10.3 0 18.7-8.4 18.7-18.7 0-8.9-6.3-16.4-14.7-18.2zm-4 28.6H22.4c-7.7 0-14-6.3-14-14s6.3-14 14-14c3.7 0 7.3 1.4 9.9 4.1 1.6 1.6 4.3 1.6 5.9 0 1.6-1.6 1.6-4.3 0-5.9-2.9-2.9-6.4-4.9-10.3-5.9 4-8.7 12.8-14.6 22.7-14.6 13.7 0 24.9 11.2 24.9 24.9 0 2.7-.4 5.3-1.3 7.8-.7 2.2.5 4.6 2.7 5.3.5.1.9.2 1.3.2 1.8 0 3.4-1.1 4-2.9.5-1.7.9-3.3 1.2-5 3.9 1.5 6.6 5.2 6.6 9.6.1 5.7-4.6 10.4-10.3 10.4z"/></svg>