<?xml version="1.0" encoding="utf-8"?>
<!-- Generator: Adobe Illustrator 23.0.1, SVG Export Plug-In . SVG Version: 6.00 Build 0)  -->
<svg version="1.1" id="Layer_1" xmlns="http://www.w3.org/2000/svg" xmlns:xlink="http://www.w3.org/1999/xlink" x="0px" y="0px"
	 viewBox="0 0 162.1 70.4" style="enable-background:new 0 0 162.1 70.4;" xml:space="preserve">
<style type="text/css">
	.st0{fill:#010101;}
</style>
<path class="st0" d="M32.8,69.9c-0.3-0.3-0.4-0.8-0.4-1.2c0-0.4-0.3-4.3-0.6-8.6l-0.6-7.8l0.6-13.8c0.6-14.1,0.7-14.6,1.8-14.6
	c0.2,0,0.6,0.1,0.8,0.4c0.4,0.3,0.6,2.1,1.2,14l0.8,13.7l-0.8,8.9c-0.4,4.9-0.9,9.1-1.1,9.3C34.1,70.5,33.4,70.4,32.8,69.9
	L32.8,69.9L32.8,69.9z M39.3,69.7c-0.3-0.4-0.6-3.1-1-9.5c-0.5-7.6-0.6-9.7-0.3-15.4c0.1-3.6,0.4-10.8,0.6-15.9
	c0.2-5.1,0.4-9.6,0.4-10.1c0.3-1.6,2.2-1.9,2.5-0.3c0.1,0.3,0.4,8,0.8,16.9L43,51.8l-0.7,8.5c-0.2,2.9-0.5,5.9-0.7,8.8
	c0,0.5-0.8,1.2-1.4,1.2C39.9,70.2,39.5,70,39.3,69.7L39.3,69.7L39.3,69.7z M45.8,69.8c-0.4-0.4-0.6-1.1-0.7-4.4
	c-0.1-2.2-0.3-5.4-0.4-7.1c-0.4-4.5-0.3-10.3,0.1-24.2c0.3-6.6,0.4-13.2,0.4-14.9c0.1-3.4,0.3-4.4,1.2-4.6c1.1-0.3,1.9,0.5,1.9,1.8
	c0,0.6,0.3,8.9,0.6,18.2l0.6,17L49,60.2c-0.3,4.7-0.6,8.7-0.6,8.9c0,0.5-0.8,1.2-1.5,1.2C46.6,70.2,46.2,70,45.8,69.8L45.8,69.8
	L45.8,69.8z M52.4,69.8c-0.3-0.4-0.5-1.1-0.6-2.3C50.8,53,50.8,52,51.3,37c0.6-20.7,0.7-22.7,1.2-23.2c0.5-0.5,1.9-0.5,2.3,0
	c0.3,0.3,0.4,3.9,0.8,12.1c0.8,23,0.8,26.6,0.3,34.1c-0.6,8.5-0.6,9.3-1.2,9.8C54.1,70.4,53.1,70.4,52.4,69.8L52.4,69.8L52.4,69.8z
	 M59,69.7c-0.3-0.3-0.6-1-0.6-1.5c0-0.4-0.2-4.2-0.4-8.4c-0.4-7-0.4-9,0-26c0.5-19.7,0.5-19.4,2-19.7c1.3-0.3,2.1,0.8,2.1,2.8
	c0,0.9,0.1,5.5,0.3,10.2c0.1,4.7,0.3,11.8,0.4,15.9c0.1,4,0.2,7.5,0.3,7.7c0.1,0.2-0.1,4.2-0.4,8.9c-0.2,3-0.4,6.1-0.6,9.1
	c0,0.8-1,1.8-1.9,1.8c-0.5,0-0.9-0.3-1.2-0.6L59,69.7L59,69.7z M65.8,69.8c-0.6-0.6-0.6-1.3-1.2-11.4c-0.3-5.9-0.3-12.1,0.3-32.1
	c0.3-10.7,0.3-10.9,2-10.9c0.6,0,1.1,0.2,1.5,0.6c0.6,0.6,0.6,1,0.8,10.2c0.1,2.9,0.3,10,0.4,15.7c0.3,9.3,0.3,11.3-0.3,18.9
	c-0.5,8.2-0.6,8.5-1.2,9c-0.8,0.6-1.8,0.6-2.5,0L65.8,69.8L65.8,69.8z M72.5,69.8c-0.4-0.4-0.6-1.1-0.7-2.3
	c-0.4-4.9-0.8-16.9-0.6-24.1c0.1-4.4,0.3-11.2,0.3-15.2c0.3-16,0.4-18.5,1-19.1c0.7-0.7,2.1-0.7,2.7,0c0.7,0.7,0.8,2.7,1.4,33.6
	c0.2,9.3-0.4,25.6-1.1,26.7C74.9,70.5,73.3,70.7,72.5,69.8L72.5,69.8L72.5,69.8z M79.4,69.7c-0.5-0.4-0.8-0.9-0.9-1.5
	c-0.1-0.5-0.3-4.6-0.6-9.2c-0.3-6.5-0.4-10.4-0.2-18.4c0.1-5.6,0.3-14.8,0.4-20.5c0.2-13,0.3-14.3,1.1-15.1c0.8-0.8,2-0.7,2.9,0.1
	c0.6,0.6,0.7,0.9,0.8,4.1c0,1.9,0.1,3.8,0.1,4.2s0.1,5.8,0.3,11.9c0.1,6.2,0.3,11.3,0.3,11.4c0.3,0.5,0.1,18.8-0.3,24.5
	c-0.2,2.3-0.3,4.6-0.4,7c0,0.7-1.3,1.9-2.1,1.9C80.4,70.3,79.7,70,79.4,69.7L79.4,69.7z M85.5,69.6l-0.7-0.7V3.5L85.6,3
	c0.9-0.7,4.2-1.8,7.6-2.5c3.6-0.7,9.5-0.6,13.2,0.1c14.9,3.1,25.5,14.5,28,30.1l0.2,1L137,31c2.1-0.6,2.8-0.7,5.6-0.6
	c3.9,0.2,4,0.2,6.6,1.1c11.1,4.2,16.2,17.1,10.8,27.7c-2.5,4.9-6,8-11.4,10l-2,0.8l-30.1,0.1l-30.1,0.1L85.5,69.6L85.5,69.6z
	 M26.2,69.4c-0.1-0.3-0.5-4.5-0.9-9.2c-0.6-8.3-0.6-8.7-0.2-14c0.3-3,0.5-6.6,0.6-8.1c0.2-2.7,0.6-3.9,1.3-3.9c0.9,0,1.1,1,1.9,9
	l0.8,8.2L29,60.1c-0.4,4.8-0.8,9-0.9,9.4c-0.1,0.4-0.4,0.6-0.9,0.6C26.6,70,26.3,69.9,26.2,69.4L26.2,69.4L26.2,69.4z M19.9,69.5
	c-0.1-0.1-0.5-4.2-0.9-9l-0.8-8.7l0.8-9c0.4-5,0.9-9.2,1-9.4c0.4-0.4,0.9-0.4,1.3,0c0.2,0.2,0.7,4.4,1.1,9.4l0.8,9l-0.8,8.7
	c-0.4,4.8-0.9,8.9-0.9,9C21.4,69.8,20.1,69.9,19.9,69.5L19.9,69.5L19.9,69.5z M13.6,68.8c-0.1-0.2-0.6-4-0.9-8.6l-0.8-8.3l0.7-7.8
	c0.4-4.3,0.8-8.4,0.8-9c0.2-1.3,0.8-1.8,1.3-1.2c0.2,0.2,0.7,3.9,1.2,8.9l0.9,8.6L16,59.6c-0.4,4.6-0.9,8.5-1.1,8.9
	C14.6,69.2,14,69.4,13.6,68.8L13.6,68.8L13.6,68.8z M7.2,66.1c-0.1-0.3-0.5-3.7-0.9-7.7l-0.8-7.1l0.8-7.3c0.8-7,0.9-7.3,1.5-7.4
	c0.7-0.1,0.6-0.4,1.8,8.3l0.8,6.6l-0.8,6.9c-0.4,3.8-0.9,7.1-1.1,7.5c-0.3,0.8-1,0.8-1.2,0.1L7.2,66.1L7.2,66.1z M1.3,60.8
	c-0.3-1.6-0.6-3.2-0.8-4.7L0,51.8l0.6-4.6c0.3-2.5,0.8-4.7,0.9-4.9c0.6-0.8,1.1,0.4,1.7,4.9l0.7,4.6l-0.7,4.6
	c-0.4,2.5-0.9,4.7-1.1,4.8C1.6,61.4,1.5,61.4,1.3,60.8L1.3,60.8L1.3,60.8z"/>
</svg>
