<?xml version="1.0" encoding="utf-8"?>
<!-- Generator: Adobe Illustrator 23.0.1, SVG Export Plug-In . SVG Version: 6.00 Build 0)  -->
<svg version="1.1" id="Layer_1" xmlns="http://www.w3.org/2000/svg" xmlns:xlink="http://www.w3.org/1999/xlink" x="0px" y="0px"
	 viewBox="0 0 89.9 73.1" style="enable-background:new 0 0 89.9 73.1;" xml:space="preserve">
<g id="Logo__x2014__FIXED">
	<path d="M28.2,73.1c33.9,0,52.5-28.1,52.5-52.5c0-0.8,0-1.6,0-2.4c3.6-2.6,6.7-5.9,9.2-9.6c-3.3,1.5-6.8,2.4-10.6,2.9
		c3.8-2.3,6.7-5.9,8.1-10.2C83.8,3.4,79.9,5,75.7,5.8C72.3,2.2,67.5,0,62.2,0C52,0,43.8,8.3,43.8,18.4c0,1.5,0.2,2.9,0.5,4.2
		c-15.3-0.8-28.9-8.1-38-19.3c-1.6,2.7-2.5,5.9-2.5,9.3C3.7,19,7,24.7,12,28c-3-0.1-5.9-0.9-8.3-2.3c0,0.1,0,0.2,0,0.2
		c0,9,6.3,16.4,14.8,18.1c-1.5,0.4-3.2,0.7-4.9,0.7c-1.2,0-2.3-0.1-3.5-0.3c2.3,7.3,9.1,12.7,17.2,12.8C21,62,13,65,4.4,65
		c-1.5,0-2.9-0.1-4.4-0.3C8.1,70,17.8,73.1,28.2,73.1"/>
</g>
</svg>
