<svg xmlns="http://www.w3.org/2000/svg" viewBox="0 0 89.9 73.1"><path d="M28.2 73.1c33.9 0 52.5-28.1 52.5-52.5v-2.4c3.6-2.6 6.7-5.9 9.2-9.6-3.3 1.5-6.8 2.4-10.6 2.9 3.8-2.3 6.7-5.9 8.1-10.2-3.6 2.1-7.5 3.7-11.7 4.5C72.3 2.2 67.5 0 62.2 0 52 0 43.8 8.3 43.8 18.4c0 1.5.2 2.9.5 4.2-15.3-.8-28.9-8.1-38-19.3C4.7 6 3.8 9.2 3.8 12.6 3.7 19 7 24.7 12 28c-3-.1-5.9-.9-8.3-2.3v.2c0 9 6.3 16.4 14.8 18.1-1.5.4-3.2.7-4.9.7-1.2 0-2.3-.1-3.5-.3 2.3 7.3 9.1 12.7 17.2 12.8C21 62 13 65 4.4 65c-1.5 0-2.9-.1-4.4-.3 8.1 5.3 17.8 8.4 28.2 8.4"/></svg>